<?xml version="1.0" encoding="UTF-8"?>
<!DOCTYPE svg PUBLIC "-//W3C//DTD SVG 1.1//EN" "http://www.w3.org/Graphics/SVG/1.1/DTD/svg11.dtd">
<!-- Creator: CorelDRAW 2019 (64-Bit) -->
<svg xmlns="http://www.w3.org/2000/svg" xml:space="preserve" width="150mm" height="120mm" version="1.1" style="shape-rendering:geometricPrecision; text-rendering:geometricPrecision; image-rendering:optimizeQuality; fill-rule:evenodd; clip-rule:evenodd"
viewBox="0 0 15000 12000"
 xmlns:xlink="http://www.w3.org/1999/xlink">
 <defs>
  <style type="text/css">
   <![CDATA[
    .str1 {stroke:#718FC8;stroke-width:70.56;stroke-miterlimit:22.9256}
    .str0 {stroke:#373435;stroke-width:20;stroke-miterlimit:22.9256}
    .fil0 {fill:none}
    .fil1 {fill:#D2D3D5}
    .fil2 {fill:#A9ABAE}
    .fil4 {fill:#4E5A62}
    .fil6 {fill:#AFBD77}
    .fil5 {fill:#585570}
    .fil8 {fill:#48887B}
    .fil3 {fill:#00AFEF}
    .fil7 {fill:#00A859}
   ]]>
  </style>
   <clipPath id="id0">
    <rect x="30729.05" y="-3409.83" width="17638.88" height="15169.44"/>
   </clipPath>
 </defs>
 <g id="Capa_x0020_1">
  <metadata id="CorelCorpID_0Corel-Layer"/>
  <g style="clip-path:url(#id0)">
   <image x="30729.05" y="-3409.83" width="17638.88" height="15169.44" xlink:href="hidroponia_Images\hidroponia_ImgID1.png"/>
  </g>
  <rect class="fil0 str0" x="-4921.22" y="-3491.37" width="895.14" height="370.42"/>
  <ellipse class="fil0 str0" cx="-7438.97" cy="-4501.62" rx="84.36" ry="185.21"/>
  <path class="fil0 str0" d="M-6728.95 -4633.91l725.74 0c37.78,0 68.4,82.92 68.4,185.21 0,102.29 -30.62,185.21 -68.4,185.21l-725.74 0 0 -370.42z"/>
  <path class="fil0 str0" d="M-7099.37 -4406.58c2.08,-83.78 -22.03,-227.33 105.84,-227.33 127.87,0 264.58,0 264.58,0l0 1693.37 -370.42 0 0 -1466.04z"/>
  <path class="fil0 str0" d="M-7099.37 -2827.86c2.08,83.78 -22.03,227.33 105.84,227.33 127.87,0 264.58,0 264.58,0l0 -1693.37 -370.42 0 0 1466.04z"/>
  <path class="fil0 str0" d="M-6728.95 -2970.95l725.74 0c37.78,0 68.4,82.92 68.4,185.21 0,102.29 -30.62,185.21 -68.4,185.21l-725.74 0 0 -370.42z"/>
  <path class="fil1 str0" d="M-4392.07 -5149.43c46.6,0 84.37,82.92 84.37,185.21 0,102.29 -37.77,185.21 -84.37,185.21 -46.59,0 -84.36,-82.92 -84.36,-185.21 0,-102.29 37.77,-185.21 84.36,-185.21z"/>
  <path class="fil0 str0" d="M-7099.37 -4406.58c2.08,-83.78 -22.03,-227.33 105.84,-227.33 127.87,0 264.58,0 264.58,0l0 1693.37 -370.42 0 0 -1466.04z"/>
  <path class="fil1 str0" d="M14831.75 6930.99c-1.04,41.45 11.02,112.47 -52.92,112.47 -63.93,0 -132.29,0 -132.29,0l-4763.49 0c-264.97,0 -473.31,-2.42 -762.48,-2.42l0 743.38c0,37.78 -38.5,68.4 -85.99,68.4 -47.5,0 -86,-30.62 -86,-68.4l0 -725.74c0,0 0,-68.36 0,-132.29 0,-63.94 71.02,-51.88 112.47,-52.92 274,0 548.12,-2 822,-2l4763.49 0 0 -665.81 0 -5693.02 -665.81 0 0 725.74c0,37.78 -38.5,68.4 -85.99,68.4 -47.5,0 -86,-30.62 -86,-68.4l0 -725.74c0,0 0,-68.36 0,-132.29 0,-63.94 71.02,-51.88 112.47,-52.92l725.33 0c0,0 68.36,0 132.29,0 63.94,0 51.88,498.29 52.92,789.14l0 5089.09 0 725.33z"/>
  <path class="fil0 str0" d="M-9415.01 -840.08l0 725.74c0,37.78 38.5,68.4 86,68.4 47.49,0 85.99,-30.62 85.99,-68.4l0 -725.74 -171.99 0z"/>
  <path class="fil0 str0" d="M-9330.95 317.56c-1.04,-41.45 11.02,-112.47 -52.92,-112.47 -63.93,0 -132.29,0 -132.29,0l0 837.8 185.21 0 0 -725.33z"/>
  <path class="fil1 str0" d="M14066.64 1824.49c-2.08,41.45 22.03,112.47 -105.84,112.47 -127.87,0 -264.58,0 -264.58,0l-725.74 0c-37.78,0 -68.4,-82.92 -68.4,-185.21 0,-102.29 30.62,-185.21 68.4,-185.21l725.74 0 0 -467.38 370.42 0 0 725.33z"/>
  <path class="fil1 str0" d="M13709.57 4892.46l-725.74 0c-37.78,0 -68.4,82.92 -68.4,185.21 0,102.29 30.62,185.21 68.4,185.21l725.74 0c0,0 136.71,0 264.58,0 127.87,0 103.76,-143.55 105.84,-227.33l0 -112.68 0 -1353.36 0 -112.68c-2.08,-83.78 22.03,-227.33 -105.84,-227.33 -127.87,0 -264.58,0 -264.58,0l-725.74 0c-37.78,0 -68.4,82.92 -68.4,185.21 0,102.29 30.62,185.21 68.4,185.21l725.74 0 0 1292.54z"/>
  <path class="fil1 str0" d="M1448.03 1372.51l11447.65 0 0 0.01c97.42,0 176.4,169.79 176.4,379.23 0,209.44 -78.98,379.23 -176.4,379.23l-11447.65 0 0 -758.47z"/>
  <ellipse class="fil2 str0" cx="1448.03" cy="1751.75" rx="176.4" ry="379.23"/>
  <path class="fil1 str0" d="M1421.38 3035.47l11447.65 0 0 0.01c97.42,0 176.4,169.79 176.4,379.23 0,209.44 -78.98,379.23 -176.4,379.23l-11447.65 0 0 -758.47z"/>
  <ellipse class="fil2 str0" cx="1421.38" cy="3414.71" rx="176.4" ry="379.23"/>
  <path class="fil1 str0" d="M707.24 3229.5l725.74 0c37.78,0 68.4,82.92 68.4,185.21 0,102.29 -30.62,185.21 -68.4,185.21l-725.74 0c0,0 -136.71,0 -264.58,0 -127.87,0 -103.76,-143.55 -105.84,-227.33l0 -112.68 0 -1353.36 0 -112.68c2.08,-83.78 -22.03,-227.33 105.84,-227.33 127.87,0 264.58,0 264.58,0l725.74 0c37.78,0 68.4,82.92 68.4,185.21 0,102.29 -30.62,185.21 -68.4,185.21l-725.74 0 0 1292.54z"/>
  <path class="fil1 str0" d="M1421.38 4698.43l11447.65 0 0 0.01c97.42,0 176.4,169.79 176.4,379.23 0,209.44 -78.98,379.23 -176.4,379.23l-11447.65 0 0 -758.47z"/>
  <ellipse class="fil2 str0" cx="1421.38" cy="5077.67" rx="176.4" ry="379.23"/>
  <path class="fil1 str0" d="M627.24 4892.46l725.74 0c37.78,0 68.4,82.92 68.4,185.21 0,102.29 -30.62,185.21 -68.4,185.21l-725.74 0 0 1648.33 3286.98 0 1210 0 537.74 0c99.88,2.08 271.01,-22.03 271.01,105.84 0,127.87 0,264.58 0,264.58l0 725.74c0,37.78 -82.92,68.4 -185.21,68.4 -102.29,0 -185.21,-30.62 -185.21,-68.4l0 -725.74 -438.33 0 -1210 0 -3003.97 0c-240.83,-2.08 -653.43,22.03 -653.43,-105.84 0,-127.87 0,-264.58 0,-264.58l0 -1747.74c2.08,-99.88 -22.03,-271.01 105.84,-271.01 127.87,0 264.58,0 264.58,0z"/>
  <g id="_2030719479552">
   <path class="fil3 str0" d="M5292.7 9325.96c0,0 -39.07,150.23 375.45,123.77 414.52,-26.46 370.43,-211.67 635.01,-141.11 264.58,70.56 582.07,282.22 1031.87,176.39 449.8,-105.83 476.26,-370.42 899.59,-194.03 423.33,176.39 784.94,176.4 1040.7,61.74 255.76,-114.66 662.16,-27.31 654.72,57.44 -7.44,84.75 -196.11,2235.61 -196.11,2235.61l-4250.98 17.64 -190.25 -2337.45z"/>
   <rect class="fil0 str1" x="4944.97" y="8223.82" width="5344.58" height="405.7"/>
   <polygon class="fil0 str1" points="5236.01,8629.52 5482.95,11663.41 9733.93,11645.77 9998.51,8629.52 "/>
  </g>
  <path class="fil4 str0" d="M2999.31 4854.78c0,90.41 -140.08,163.7 -312.87,163.7 -172.79,0 -312.88,-73.29 -312.88,-163.7l0 -203.74 625.75 0 0 203.74z"/>
  <ellipse class="fil5 str0" cx="2686.44" cy="4651.04" rx="312.87" ry="163.71"/>
  <path class="fil6 str0" d="M2686.44 4651.04c0,0 -563.9,-196.46 -625.75,-309.23 -61.85,-112.77 7.81,-184.96 58.74,-221.35 50.94,-36.38 225.66,-212.27 330.54,-7.86 104.89,204.42 236.47,538.44 236.47,538.44l0 0z"/>
  <path class="fil7 str0" d="M2686.44 4651.04c0,0 -236.41,-482.03 -220.11,-597.55 16.31,-115.52 106.33,-175.06 168.79,-170.95 62.46,4.12 218.91,-13.59 220.51,162.38 1.6,175.98 -169.19,606.12 -169.19,606.12l0 0z"/>
  <path class="fil8 str0" d="M2686.44 4651.05c0,0 131.03,-582.59 236.03,-656.87 105,-74.28 184.65,-13.29 226.59,33.17 41.95,46.47 186.65,153.86 29.2,281.75 -157.46,127.89 -491.82,341.95 -491.82,341.95l0 0z"/>
  <path class="fil4 str0" d="M5804.59 4854.79c0,90.41 -140.08,163.7 -312.87,163.7 -172.79,0 -312.88,-73.29 -312.88,-163.7l0 -203.74 625.75 0 0 203.74z"/>
  <ellipse class="fil5 str0" cx="5491.72" cy="4651.05" rx="312.87" ry="163.71"/>
  <path class="fil6 str0" d="M5491.72 4651.05c0,0 -563.9,-196.46 -625.75,-309.23 -61.85,-112.77 7.81,-184.96 58.74,-221.35 50.94,-36.38 225.66,-212.27 330.54,-7.86 104.89,204.42 236.47,538.44 236.47,538.44l0 0z"/>
  <path class="fil7 str0" d="M5491.72 4651.05c0,0 -236.41,-482.03 -220.11,-597.55 16.31,-115.52 106.33,-175.06 168.79,-170.95 62.46,4.12 218.91,-13.59 220.51,162.38 1.6,175.98 -169.19,606.12 -169.19,606.12l0 0z"/>
  <path class="fil8 str0" d="M5491.72 4651.06c0,0 131.03,-582.59 236.03,-656.87 105,-74.28 184.65,-13.29 226.59,33.17 41.95,46.47 186.65,153.86 29.2,281.75 -157.46,127.89 -491.82,341.95 -491.82,341.95l0 0z"/>
  <path class="fil4 str0" d="M8827.72 4854.79c0,90.41 -140.08,163.7 -312.87,163.7 -172.79,0 -312.88,-73.29 -312.88,-163.7l0 -203.74 625.75 0 0 203.74z"/>
  <ellipse class="fil5 str0" cx="8514.85" cy="4651.05" rx="312.87" ry="163.71"/>
  <path class="fil6 str0" d="M8514.85 4651.05c0,0 -563.9,-196.46 -625.75,-309.23 -61.85,-112.77 7.81,-184.96 58.74,-221.35 50.94,-36.38 225.66,-212.27 330.54,-7.86 104.89,204.42 236.47,538.44 236.47,538.44l0 0z"/>
  <path class="fil7 str0" d="M8514.85 4651.05c0,0 -236.41,-482.03 -220.11,-597.55 16.31,-115.52 106.33,-175.06 168.79,-170.95 62.46,4.12 218.91,-13.59 220.51,162.38 1.6,175.98 -169.19,606.12 -169.19,606.12l0 0z"/>
  <path class="fil8 str0" d="M8514.85 4651.06c0,0 131.03,-582.59 236.03,-656.87 105,-74.28 184.65,-13.29 226.59,33.17 41.95,46.47 186.65,153.86 29.2,281.75 -157.46,127.89 -491.82,341.95 -491.82,341.95l0 0z"/>
  <path class="fil4 str0" d="M11883.58 4854.79c0,90.41 -140.08,163.7 -312.87,163.7 -172.79,0 -312.88,-73.29 -312.88,-163.7l0 -203.74 625.75 0 0 203.74z"/>
  <ellipse class="fil5 str0" cx="11570.71" cy="4651.05" rx="312.87" ry="163.71"/>
  <path class="fil6 str0" d="M11570.71 4651.05c0,0 -563.9,-196.46 -625.75,-309.23 -61.85,-112.77 7.81,-184.96 58.74,-221.35 50.94,-36.38 225.66,-212.27 330.54,-7.86 104.89,204.42 236.47,538.44 236.47,538.44l0 0z"/>
  <path class="fil7 str0" d="M11570.71 4651.05c0,0 -236.41,-482.03 -220.11,-597.55 16.31,-115.52 106.33,-175.06 168.79,-170.95 62.46,4.12 218.91,-13.59 220.51,162.38 1.6,175.98 -169.19,606.12 -169.19,606.12l0 0z"/>
  <path class="fil8 str0" d="M11570.71 4651.06c0,0 131.03,-582.59 236.03,-656.87 105,-74.28 184.65,-13.29 226.59,33.17 41.95,46.47 186.65,153.86 29.2,281.75 -157.46,127.89 -491.82,341.95 -491.82,341.95l0 0z"/>
  <path class="fil4 str0" d="M2999.31 3267.28c0,90.41 -140.08,163.7 -312.87,163.7 -172.79,0 -312.88,-73.29 -312.88,-163.7l0 -203.74 625.75 0 0 203.74z"/>
  <ellipse class="fil5 str0" cx="2686.44" cy="3063.54" rx="312.87" ry="163.71"/>
  <path class="fil6 str0" d="M2686.44 3063.54c0,0 -563.9,-196.46 -625.75,-309.23 -61.85,-112.77 7.81,-184.96 58.74,-221.35 50.94,-36.38 225.66,-212.27 330.54,-7.86 104.89,204.42 236.47,538.44 236.47,538.44l0 0z"/>
  <path class="fil7 str0" d="M2686.44 3063.54c0,0 -236.41,-482.03 -220.11,-597.55 16.31,-115.52 106.33,-175.06 168.79,-170.95 62.46,4.12 218.91,-13.59 220.51,162.38 1.6,175.98 -169.19,606.12 -169.19,606.12l0 0z"/>
  <path class="fil8 str0" d="M2686.44 3063.55c0,0 131.03,-582.59 236.03,-656.87 105,-74.28 184.65,-13.29 226.59,33.17 41.95,46.47 186.65,153.86 29.2,281.75 -157.46,127.89 -491.82,341.95 -491.82,341.95l0 0z"/>
  <path class="fil4 str0" d="M5804.59 3267.29c0,90.41 -140.08,163.7 -312.87,163.7 -172.79,0 -312.88,-73.29 -312.88,-163.7l0 -203.74 625.75 0 0 203.74z"/>
  <ellipse class="fil5 str0" cx="5491.72" cy="3063.55" rx="312.87" ry="163.71"/>
  <path class="fil6 str0" d="M5491.72 3063.55c0,0 -563.9,-196.46 -625.75,-309.23 -61.85,-112.77 7.81,-184.96 58.74,-221.35 50.94,-36.38 225.66,-212.27 330.54,-7.86 104.89,204.42 236.47,538.44 236.47,538.44l0 0z"/>
  <path class="fil7 str0" d="M5491.72 3063.55c0,0 -236.41,-482.03 -220.11,-597.55 16.31,-115.52 106.33,-175.06 168.79,-170.95 62.46,4.12 218.91,-13.59 220.51,162.38 1.6,175.98 -169.19,606.12 -169.19,606.12l0 0z"/>
  <path class="fil8 str0" d="M5491.72 3063.56c0,0 131.03,-582.59 236.03,-656.87 105,-74.28 184.65,-13.29 226.59,33.17 41.95,46.47 186.65,153.86 29.2,281.75 -157.46,127.89 -491.82,341.95 -491.82,341.95l0 0z"/>
  <path class="fil4 str0" d="M8827.72 3267.29c0,90.41 -140.08,163.7 -312.87,163.7 -172.79,0 -312.88,-73.29 -312.88,-163.7l0 -203.74 625.75 0 0 203.74z"/>
  <ellipse class="fil5 str0" cx="8514.85" cy="3063.55" rx="312.87" ry="163.71"/>
  <path class="fil6 str0" d="M8514.85 3063.55c0,0 -563.9,-196.46 -625.75,-309.23 -61.85,-112.77 7.81,-184.96 58.74,-221.35 50.94,-36.38 225.66,-212.27 330.54,-7.86 104.89,204.42 236.47,538.44 236.47,538.44l0 0z"/>
  <path class="fil7 str0" d="M8514.85 3063.55c0,0 -236.41,-482.03 -220.11,-597.55 16.31,-115.52 106.33,-175.06 168.79,-170.95 62.46,4.12 218.91,-13.59 220.51,162.38 1.6,175.98 -169.19,606.12 -169.19,606.12l0 0z"/>
  <path class="fil8 str0" d="M8514.85 3063.56c0,0 131.03,-582.59 236.03,-656.87 105,-74.28 184.65,-13.29 226.59,33.17 41.95,46.47 186.65,153.86 29.2,281.75 -157.46,127.89 -491.82,341.95 -491.82,341.95l0 0z"/>
  <path class="fil4 str0" d="M11883.58 3267.29c0,90.41 -140.08,163.7 -312.87,163.7 -172.79,0 -312.88,-73.29 -312.88,-163.7l0 -203.74 625.75 0 0 203.74z"/>
  <ellipse class="fil5 str0" cx="11570.71" cy="3063.55" rx="312.87" ry="163.71"/>
  <path class="fil6 str0" d="M11570.71 3063.55c0,0 -563.9,-196.46 -625.75,-309.23 -61.85,-112.77 7.81,-184.96 58.74,-221.35 50.94,-36.38 225.66,-212.27 330.54,-7.86 104.89,204.42 236.47,538.44 236.47,538.44l0 0z"/>
  <path class="fil7 str0" d="M11570.71 3063.55c0,0 -236.41,-482.03 -220.11,-597.55 16.31,-115.52 106.33,-175.06 168.79,-170.95 62.46,4.12 218.91,-13.59 220.51,162.38 1.6,175.98 -169.19,606.12 -169.19,606.12l0 0z"/>
  <path class="fil8 str0" d="M11570.71 3063.56c0,0 131.03,-582.59 236.03,-656.87 105,-74.28 184.65,-13.29 226.59,33.17 41.95,46.47 186.65,153.86 29.2,281.75 -157.46,127.89 -491.82,341.95 -491.82,341.95l0 0z"/>
  <path class="fil4 str0" d="M2999.31 1609.22c0,90.41 -140.08,163.7 -312.87,163.7 -172.79,0 -312.88,-73.29 -312.88,-163.7l0 -203.74 625.75 0 0 203.74z"/>
  <ellipse class="fil5 str0" cx="2686.44" cy="1405.48" rx="312.87" ry="163.71"/>
  <path class="fil6 str0" d="M2686.44 1405.48c0,0 -563.9,-196.46 -625.75,-309.23 -61.85,-112.77 7.81,-184.96 58.74,-221.35 50.94,-36.38 225.66,-212.27 330.54,-7.86 104.89,204.42 236.47,538.44 236.47,538.44l0 0z"/>
  <path class="fil7 str0" d="M2686.44 1405.48c0,0 -236.41,-482.03 -220.11,-597.55 16.31,-115.52 106.33,-175.06 168.79,-170.95 62.46,4.12 218.91,-13.59 220.51,162.38 1.6,175.98 -169.19,606.12 -169.19,606.12l0 0z"/>
  <path class="fil8 str0" d="M2686.44 1405.49c0,0 131.03,-582.59 236.03,-656.87 105,-74.28 184.65,-13.29 226.59,33.17 41.95,46.47 186.65,153.86 29.2,281.75 -157.46,127.89 -491.82,341.95 -491.82,341.95l0 0z"/>
  <path class="fil4 str0" d="M5804.59 1609.23c0,90.41 -140.08,163.7 -312.87,163.7 -172.79,0 -312.88,-73.29 -312.88,-163.7l0 -203.74 625.75 0 0 203.74z"/>
  <ellipse class="fil5 str0" cx="5491.72" cy="1405.49" rx="312.87" ry="163.71"/>
  <path class="fil6 str0" d="M5491.72 1405.49c0,0 -563.9,-196.46 -625.75,-309.23 -61.85,-112.77 7.81,-184.96 58.74,-221.35 50.94,-36.38 225.66,-212.27 330.54,-7.86 104.89,204.42 236.47,538.44 236.47,538.44l0 0z"/>
  <path class="fil7 str0" d="M5491.72 1405.49c0,0 -236.41,-482.03 -220.11,-597.55 16.31,-115.52 106.33,-175.06 168.79,-170.95 62.46,4.12 218.91,-13.59 220.51,162.38 1.6,175.98 -169.19,606.12 -169.19,606.12l0 0z"/>
  <path class="fil8 str0" d="M5491.72 1405.5c0,0 131.03,-582.59 236.03,-656.87 105,-74.28 184.65,-13.29 226.59,33.17 41.95,46.47 186.65,153.86 29.2,281.75 -157.46,127.89 -491.82,341.95 -491.82,341.95l0 0z"/>
  <path class="fil4 str0" d="M8827.72 1609.23c0,90.41 -140.08,163.7 -312.87,163.7 -172.79,0 -312.88,-73.29 -312.88,-163.7l0 -203.74 625.75 0 0 203.74z"/>
  <ellipse class="fil5 str0" cx="8514.85" cy="1405.49" rx="312.87" ry="163.71"/>
  <path class="fil6 str0" d="M8514.85 1405.49c0,0 -563.9,-196.46 -625.75,-309.23 -61.85,-112.77 7.81,-184.96 58.74,-221.35 50.94,-36.38 225.66,-212.27 330.54,-7.86 104.89,204.42 236.47,538.44 236.47,538.44l0 0z"/>
  <path class="fil7 str0" d="M8514.85 1405.49c0,0 -236.41,-482.03 -220.11,-597.55 16.31,-115.52 106.33,-175.06 168.79,-170.95 62.46,4.12 218.91,-13.59 220.51,162.38 1.6,175.98 -169.19,606.12 -169.19,606.12l0 0z"/>
  <path class="fil8 str0" d="M8514.85 1405.5c0,0 131.03,-582.59 236.03,-656.87 105,-74.28 184.65,-13.29 226.59,33.17 41.95,46.47 186.65,153.86 29.2,281.75 -157.46,127.89 -491.82,341.95 -491.82,341.95l0 0z"/>
  <path class="fil4 str0" d="M11883.58 1609.23c0,90.41 -140.08,163.7 -312.87,163.7 -172.79,0 -312.88,-73.29 -312.88,-163.7l0 -203.74 625.75 0 0 203.74z"/>
  <ellipse class="fil5 str0" cx="11570.71" cy="1405.49" rx="312.87" ry="163.71"/>
  <path class="fil6 str0" d="M11570.71 1405.49c0,0 -563.9,-196.46 -625.75,-309.23 -61.85,-112.77 7.81,-184.96 58.74,-221.35 50.94,-36.38 225.66,-212.27 330.54,-7.86 104.89,204.42 236.47,538.44 236.47,538.44l0 0z"/>
  <path class="fil7 str0" d="M11570.71 1405.49c0,0 -236.41,-482.03 -220.11,-597.55 16.31,-115.52 106.33,-175.06 168.79,-170.95 62.46,4.12 218.91,-13.59 220.51,162.38 1.6,175.98 -169.19,606.12 -169.19,606.12l0 0z"/>
  <path class="fil8 str0" d="M11570.71 1405.5c0,0 131.03,-582.59 236.03,-656.87 105,-74.28 184.65,-13.29 226.59,33.17 41.95,46.47 186.65,153.86 29.2,281.75 -157.46,127.89 -491.82,341.95 -491.82,341.95l0 0z"/>
 </g>
</svg>
